<svg width="24" height="24" viewBox="0 0 24 24" fill="none" xmlns="http://www.w3.org/2000/svg">
  <path d="M12 2C6.47715 2 2 6.47715 2 12C2 17.5228 6.47715 22 12 22C17.5228 22 22 17.5228 22 12C22 6.47715 17.5228 2 12 2Z" fill="#1DB954"/>
  <path d="M16.7461 16.3724C16.5388 16.7132 16.2042 16.9045 15.8557 16.9045C15.6822 16.9045 15.5079 16.8575 15.35 16.7586C14.7579 16.4161 14.1035 16.1828 13.4137 16.0663C12.3057 15.876 11.1708 15.9945 10.1314 16.4115C9.64015 16.614 9.08201 16.4152 8.87953 15.9239C8.67704 15.4326 8.87582 14.8745 9.36705 14.672C10.7134 14.1243 12.1716 13.9689 13.594 14.2147C14.4919 14.3669 15.346 14.6674 16.1238 15.1137C16.5824 15.3693 16.7365 15.9583 16.4863 16.4131L16.7461 16.3724Z" fill="white"/>
  <path d="M18.2306 13.3122C17.9709 13.7404 17.5494 13.9799 17.1197 13.9799C16.9051 13.9799 16.6887 13.9209 16.4927 13.7968C15.7321 13.3681 14.9045 13.0711 14.044 12.9152C12.6582 12.6786 11.2386 12.8284 9.93285 13.3548C9.32307 13.6061 8.63247 13.3569 8.38435 12.7405C8.13623 12.1241 8.38156 11.427 8.99134 11.1756C10.6054 10.5214 12.3576 10.3346 14.0704 10.6331C15.1853 10.8329 16.2512 11.2118 17.2358 11.7567C17.8235 12.0667 18.0151 12.7834 17.7089 13.378L18.2306 13.3122Z" fill="white"/>
  <path d="M19.7114 9.9286C19.3822 10.4721 18.8564 10.7765 18.3173 10.7765C18.0453 10.7765 17.7705 10.7027 17.5222 10.5486C16.5752 10.0128 15.5494 9.63054 14.4779 9.42432C12.7505 9.12364 10.9778 9.30881 9.33429 9.97599C8.57388 10.2884 7.72121 9.97089 7.41188 9.20248C7.10254 8.43408 7.41528 7.57389 8.17569 7.26155C10.2587 6.41324 12.509 6.18309 14.7083 6.5639C16.0261 6.82105 17.2863 7.29958 18.4518 7.97828C19.1575 8.37064 19.398 9.28828 19.0105 10.0028L19.7114 9.9286Z" fill="white"/>
  <circle cx="19" cy="5" r="3" fill="#00FF00" stroke="#1DB954"/>
</svg>